<svg width="261" height="55" viewBox="0 0 261 55" fill="none" xmlns="http://www.w3.org/2000/svg">
<path d="M21.168 53H14.544L0.288 17.72H7.488L17.856 45.08H18L28.512 17.72H35.568L21.168 53ZM48.4594 5.552C48.4594 6.848 48.0034 7.952 47.0914 8.864C46.1794 9.776 45.0754 10.232 43.7794 10.232C42.4834 10.232 41.3794 9.776 40.4674 8.864C39.5554 7.952 39.0994 6.848 39.0994 5.552C39.0994 4.256 39.5554 3.152 40.4674 2.24C41.3794 1.328 42.4834 0.871997 43.7794 0.871997C45.0754 0.871997 46.1794 1.328 47.0914 2.24C48.0034 3.152 48.4594 4.256 48.4594 5.552ZM47.0914 17.72V53H40.4674V17.72H47.0914ZM72.8477 53H66.2237L51.9677 17.72H59.1677L69.5357 45.08H69.6797L80.1917 17.72H87.2477L72.8477 53ZM95.6919 42.2C95.6919 43.928 96.4119 45.368 97.8519 46.52C99.3399 47.672 101.068 48.248 103.036 48.248C105.82 48.248 108.292 47.216 110.452 45.152C112.66 43.088 113.764 40.664 113.764 37.88C111.7 36.248 108.82 35.432 105.124 35.432C102.436 35.432 100.18 36.08 98.3559 37.376C96.5799 38.672 95.6919 40.28 95.6919 42.2ZM104.26 16.568C109.156 16.568 113.02 17.888 115.852 20.528C118.684 23.12 120.1 26.696 120.1 31.256V53H113.764V48.104H113.476C110.74 52.136 107.092 54.152 102.532 54.152C98.6439 54.152 95.3799 53 92.7399 50.696C90.1479 48.392 88.8519 45.512 88.8519 42.056C88.8519 38.408 90.2199 35.504 92.9559 33.344C95.7399 31.184 99.4359 30.104 104.044 30.104C107.98 30.104 111.22 30.824 113.764 32.264V30.752C113.764 28.448 112.852 26.504 111.028 24.92C109.204 23.288 107.068 22.472 104.62 22.472C100.924 22.472 97.9959 24.032 95.8359 27.152L90.0039 23.48C93.2199 18.872 97.9719 16.568 104.26 16.568Z" fill="#8FD8EF"/>
<path d="M141.539 53.576C138.659 53.576 136.259 52.688 134.339 50.912C132.467 49.136 131.507 46.664 131.459 43.496V23.768H125.267V17.72H131.459V6.92H138.083V17.72H146.723V23.768H138.083V41.336C138.083 43.688 138.539 45.296 139.451 46.16C140.363 46.976 141.395 47.384 142.547 47.384C143.075 47.384 143.579 47.336 144.059 47.24C144.587 47.096 145.067 46.928 145.499 46.736L147.587 52.64C145.859 53.264 143.843 53.576 141.539 53.576ZM168.513 54.152C163.329 54.152 159.057 52.376 155.697 48.824C152.337 45.272 150.657 40.784 150.657 35.36C150.657 29.984 152.289 25.52 155.553 21.968C158.817 18.368 162.993 16.568 168.081 16.568C173.313 16.568 177.465 18.272 180.537 21.68C183.657 25.04 185.217 29.768 185.217 35.864L185.145 36.584H157.425C157.521 40.04 158.673 42.824 160.881 44.936C163.089 47.048 165.729 48.104 168.801 48.104C173.025 48.104 176.337 45.992 178.737 41.768L184.641 44.648C183.057 47.624 180.849 49.952 178.017 51.632C175.233 53.312 172.065 54.152 168.513 54.152ZM157.929 31.112H178.161C177.969 28.664 176.961 26.648 175.137 25.064C173.361 23.432 170.961 22.616 167.937 22.616C165.441 22.616 163.281 23.384 161.457 24.92C159.681 26.456 158.505 28.52 157.929 31.112ZM207.754 54.152C202.522 54.152 198.178 52.376 194.722 48.824C191.314 45.176 189.61 40.688 189.61 35.36C189.61 29.936 191.314 25.448 194.722 21.896C198.178 18.344 202.522 16.568 207.754 16.568C211.354 16.568 214.498 17.48 217.186 19.304C219.874 21.08 221.89 23.552 223.234 26.72L217.186 29.24C215.314 24.824 212.026 22.616 207.322 22.616C204.298 22.616 201.682 23.84 199.474 26.288C197.314 28.736 196.234 31.76 196.234 35.36C196.234 38.96 197.314 41.984 199.474 44.432C201.682 46.88 204.298 48.104 207.322 48.104C212.17 48.104 215.578 45.896 217.546 41.48L223.45 44C222.154 47.168 220.114 49.664 217.33 51.488C214.594 53.264 211.402 54.152 207.754 54.152ZM229.243 1.448H235.867V17.72L235.579 22.616H235.867C236.875 20.888 238.411 19.448 240.475 18.296C242.587 17.144 244.771 16.568 247.027 16.568C251.347 16.568 254.659 17.816 256.963 20.312C259.315 22.76 260.491 26.264 260.491 30.824V53H253.867V32.12C253.867 25.784 251.059 22.616 245.443 22.616C242.755 22.616 240.475 23.744 238.603 26C236.779 28.208 235.867 30.8 235.867 33.776V53H229.243V1.448Z" fill="white"/>
</svg>
